{"title":"Reik - Tu Mirada (Premios Lo Nuestro 2012)","uid":7060129,"size":103997083,"categoryP":"video","categoryS":"music_videos","magnet":"?xt=urn:btih:a259339aec93cfa72a2fbc0a646b6aea64a6cd89&amp;dn=Reik+-+Tu+Mirada+%28Premios+Lo+Nuestro+2012%29&amp;tr=udp%3A%2F%2Ftracker.openbittorrent.com%3A80&amp;tr=udp%3A%2F%2Fopen.demonii.com%3A1337&amp;tr=udp%3A%2F%2Ftracker.coppersurfer.tk%3A6969&amp;tr=udp%3A%2F%2Fexodus.desync.com%3A6969","seeders":1,"leechers":0,"uploader":"MusicVideos-HQ","files":1,"time":1330318739,"description":"General\n\n\nFormat                           : MPEG-4\nFormat profile                   : Base Media\nCodec ID                         : isom\nFile size                        : 99.2 MiB\nDuration                         : 3mn 25s\nOverall bit rate                 : 4 043 Kbps\nEncoded date                     : UTC 2012-02-26 17:54:33\nTagged date                      : UTC 2012-02-26 17:54:33\n\nVideo\nID                               : 1\nFormat                           : AVC\nFormat/Info                      : Advanced Video Codec\nFormat profile                   : &lt;a class=&quot;__cf_email__&quot; href=&quot;/cdn-cgi/l/email-protection&quot; data-cfemail=&quot;1a52737d725a5629342a&quot;&gt;[email&amp;#160;protected]&lt;/a&gt;&lt;script cf-hash='f9e31' type=&quot;text/javascript&quot;&gt;\n/* &lt;![CDATA[ */!function(){try{var t=&quot;currentScript&quot;in document?document.currentScript:function(){for(var t=document.getElementsByTagName(&quot;script&quot;),e=t.length;e--;)if(t[e].getAttribute(&quot;cf-hash&quot;))return t[e]}();if(t&amp;&amp;t.previousSibling){var e,r,n,i,c=t.previousSibling,a=c.getAttribute(&quot;data-cfemail&quot;);if(a){for(e=&quot;&quot;,r=parseInt(a.substr(0,2),16),n=2;a.length-n;n+=2)i=parseInt(a.substr(n,2),16)^r,e+=String.fromCharCode(i);e=document.createTextNode(e),c.parentNode.replaceChild(e,c)}}}catch(u){}}();/* ]]&gt; */&lt;/script&gt;\nFormat settings, CABAC           : Yes\nFormat settings, ReFrames        : 2 frames\nCodec ID                         : avc1\nCodec ID/Info                    : Advanced Video Coding\nDuration                         : 3mn 25s\nBit rate mode                    : Variable\nBit rate                         : 3 959 Kbps\nMaximum bit rate                 : 10.4 Mbps\nWidth                            : 640 pixels\nHeight                           : 480 pixels\nDisplay aspect ratio             : 4:3\nFrame rate mode                  : Constant\nFrame rate                       : 29.970 fps\nColor space                      : YUV\nChroma subsampling               : 4:2:0\nBit depth                        : 8 bits\nScan type                        : Progressive\nBits/(Pixel*Frame)               : 0.430\nStream size                      : 97.5 MiB (98%)\n\n\n\nAudio\nID                               : 2\nFormat                           : AAC\nFormat/Info                      : Advanced Audio Codec\nFormat profile                   : LC\nCodec ID                         : 40\nDuration                         : 3mn 25s\nBit rate mode                    : Variable\nBit rate                         : 60.1 Kbps\nMaximum bit rate                 : 67.9 Kbps\nChannel(s)                       : 2 channels\nChannel positions                : Front: L R\nSampling rate                    : 44.1 KHz\nCompression mode                 : Lossy\nStream size                      : 1.47 MiB (1%)\n\n\n","torrent":{"xt":"urn:btih:a259339aec93cfa72a2fbc0a646b6aea64a6cd89","amp;dn":"Reik+-+Tu+Mirada+%28Premios+Lo+Nuestro+2012%29","amp;tr":["udp%3A%2F%2Ftracker.openbittorrent.com%3A80","udp%3A%2F%2Fopen.demonii.com%3A1337","udp%3A%2F%2Ftracker.coppersurfer.tk%3A6969","udp%3A%2F%2Fexodus.desync.com%3A6969"],"infoHash":"a259339aec93cfa72a2fbc0a646b6aea64a6cd89","infoHashBuffer":{"type":"Buffer","data":[162,89,51,154,236,147,207,167,42,47,188,10,100,107,106,234,100,166,205,137]},"announce":[],"urlList":[]}}